<svg id="svg" fill="#000000" stroke="#000000" width="200px" height="200px" version="1.1" viewBox="144 144 512 512" xmlns="http://www.w3.org/2000/svg">
    <g id="IconSvg_bgCarrier" stroke-width="0"></g>
    <g id="IconSvg_tracerCarrier" stroke-linecap="round" stroke-linejoin="round" stroke="#CCCCCC"></g>
     <g id="IconSvg_iconCarrier">
      <path xmlns="http://www.w3.org/2000/svg" d="m400 163.84c130.43 0 236.16 105.73 236.16 236.16 0 130.43-105.73 236.16-236.16 236.16-130.43 0-236.16-105.73-236.16-236.16 0-130.43 105.73-236.16 236.16-236.16zm0 31.488c-113.04 0-204.68 91.637-204.68 204.68 0 113.04 91.637 204.67 204.68 204.67 113.04 0 204.67-91.637 204.67-204.67 0-113.04-91.637-204.68-204.67-204.68zm15.742 141.7v125.95h31.488v31.484h-94.465v-31.484h31.488v-94.465h-31.488v-31.488zm-23.617-62.977c13.043 0 23.617 10.574 23.617 23.617 0 13.039-10.574 23.613-23.617 23.613s-23.613-10.574-23.613-23.613c0-13.043 10.57-23.617 23.613-23.617z"></path>

      </g>
      </svg>